<svg width="173" height="40" viewBox="0 0 173 40" fill="none" xmlns="http://www.w3.org/2000/svg">
<path opacity="0.4" d="M6.38281 25.3055V10.1523L17.9471 14.5388V30.0907L6.38281 25.3055Z" fill="#0D0D0D"/>
<path opacity="0.4" d="M23.9141 19.9236V17.7304L35.4783 13.1445V15.3377L23.9141 19.9236Z" fill="#0D0D0D"/>
<path opacity="0.4" d="M18.7344 30.2926V27.9L30.498 23.3906V25.5838L18.7344 30.2926Z" fill="#0D0D0D"/>
<path d="M1.19507 28.4972V7.96072L5.5815 9.75517V25.9052L17.9433 31.2886V35.4756L1.19507 28.4972Z" fill="#0D0D0D"/>
<path d="M18.7422 35.4757V31.2886L31.104 26.1047V22.3164L18.7422 26.9022V14.5404L35.4904 8.16016V12.3472L23.1286 17.1324V21.1201L35.4904 16.3349V28.6966L18.7422 35.4757Z" fill="#0D0D0D"/>
<path opacity="0.2" d="M18.3416 13.7426L1.99219 7.36234L18.7404 3.77344L35.0898 7.36234L18.3416 13.7426Z" fill="#0D0D0D"/>
<path d="M50.1116 23.7837V24.8008H45.3957V23.7837H50.1116ZM45.6419 15.3689V24.8008H44.3916V15.3689H45.6419ZM55.1644 16.2046L52.0421 24.8008H50.7659L54.3612 15.3689H55.1839L55.1644 16.2046ZM57.7815 24.8008L54.6527 16.2046L54.6332 15.3689H55.4559L59.0641 24.8008H57.7815ZM57.6195 21.3092V22.3327H52.3206V21.3092H57.6195ZM62.9703 15.3689V24.8008H61.7395V15.3689H62.9703ZM66.002 15.3689V16.3924H58.7143V15.3689H66.002ZM73.3933 23.7837V24.8008H68.3988V23.7837H73.3933ZM68.6514 15.3689V24.8008H67.4012V15.3689H68.6514ZM72.7325 19.4241V20.4411H68.3988V19.4241H72.7325ZM73.3285 15.3689V16.3924H68.3988V15.3689H73.3285ZM79.5991 22.3327C79.5991 22.1643 79.5732 22.0131 79.5214 21.8792C79.4739 21.741 79.3832 21.6158 79.2493 21.5035C79.1154 21.3869 78.9276 21.2725 78.6857 21.1602C78.4439 21.0479 78.1308 20.9313 77.7464 20.8104C77.3189 20.6722 76.9129 20.5167 76.5286 20.344C76.1485 20.1712 75.8117 19.9704 75.518 19.7415C75.2287 19.5083 74.9998 19.2384 74.8314 18.9318C74.6673 18.6252 74.5852 18.2689 74.5852 17.8629C74.5852 17.4699 74.6716 17.1137 74.8443 16.7941C75.0171 16.4702 75.2589 16.1938 75.5699 15.9649C75.8808 15.7317 76.2479 15.5525 76.6711 15.4272C77.0986 15.302 77.5672 15.2394 78.0768 15.2394C78.7721 15.2394 79.3789 15.3646 79.8971 15.6151C80.4153 15.8656 80.817 16.2089 81.102 16.6451C81.3913 17.0813 81.536 17.5801 81.536 18.1415H79.6056C79.6056 17.8651 79.5473 17.6233 79.4307 17.416C79.3184 17.2043 79.1457 17.0381 78.9125 16.9172C78.6836 16.7962 78.3942 16.7358 78.0444 16.7358C77.7076 16.7358 77.4269 16.7876 77.2023 16.8912C76.9777 16.9906 76.8093 17.1266 76.697 17.2994C76.5847 17.4678 76.5286 17.6578 76.5286 17.8694C76.5286 18.0292 76.5675 18.1739 76.6452 18.3034C76.7272 18.433 76.8482 18.5539 77.008 18.6662C77.1677 18.7785 77.3642 18.8843 77.5974 18.9836C77.8306 19.0829 78.1006 19.1801 78.4072 19.2751C78.9211 19.4306 79.3724 19.6055 79.7611 19.7998C80.1541 19.9942 80.4823 20.2123 80.7457 20.4541C81.0091 20.6959 81.2078 20.9702 81.3417 21.2768C81.4756 21.5834 81.5425 21.9311 81.5425 22.3197C81.5425 22.73 81.4626 23.0971 81.3028 23.421C81.143 23.7449 80.912 24.0191 80.6097 24.2437C80.3074 24.4682 79.9468 24.6388 79.5279 24.7554C79.109 24.872 78.6404 24.9303 78.1222 24.9303C77.6557 24.9303 77.1958 24.8699 76.7424 24.749C76.2889 24.6237 75.8765 24.4359 75.5051 24.1854C75.138 23.9349 74.8443 23.6153 74.6241 23.2266C74.4038 22.838 74.2937 22.378 74.2937 21.8469H76.2436C76.2436 22.1405 76.2889 22.3888 76.3796 22.5918C76.4703 22.7948 76.5977 22.9589 76.7618 23.0841C76.9302 23.2094 77.1289 23.3001 77.3578 23.3562C77.591 23.4123 77.8458 23.4404 78.1222 23.4404C78.459 23.4404 78.7354 23.3929 78.9513 23.2979C79.1716 23.2029 79.3335 23.0712 79.4372 22.9028C79.5451 22.7343 79.5991 22.5443 79.5991 22.3327ZM89.154 19.2103V20.7262H84.2308V19.2103H89.154ZM84.8074 15.3689V24.8008H82.864V15.3689H84.8074ZM90.5403 15.3689V24.8008H88.6034V15.3689H90.5403ZM94.2975 15.3689V24.8008H92.3606V15.3689H94.2975ZM99.7908 21.4387H97.3875V19.9229H99.7908C100.162 19.9229 100.464 19.8624 100.698 19.7415C100.931 19.6163 101.101 19.4435 101.209 19.2233C101.317 19.003 101.371 18.7547 101.371 18.4783C101.371 18.1976 101.317 17.9363 101.209 17.6945C101.101 17.4527 100.931 17.2583 100.698 17.1115C100.464 16.9647 100.162 16.8912 99.7908 16.8912H98.0612V24.8008H96.1178V15.3689H99.7908C100.529 15.3689 101.162 15.5028 101.689 15.7706C102.22 16.034 102.626 16.3989 102.907 16.8653C103.187 17.3317 103.328 17.8651 103.328 18.4654C103.328 19.0743 103.187 19.6012 102.907 20.046C102.626 20.4908 102.22 20.8341 101.689 21.076C101.162 21.3178 100.529 21.4387 99.7908 21.4387ZM105.556 15.3689H107.202L109.624 22.2938L112.047 15.3689H113.692L110.285 24.8008H108.964L105.556 15.3689ZM104.669 15.3689H106.308L106.606 22.1189V24.8008H104.669V15.3689ZM112.941 15.3689H114.586V24.8008H112.643V22.1189L112.941 15.3689ZM122.619 23.2849V24.8008H117.599V23.2849H122.619ZM118.233 15.3689V24.8008H116.29V15.3689H118.233ZM121.965 19.2103V20.6873H117.599V19.2103H121.965ZM122.612 15.3689V16.8912H117.599V15.3689H122.612ZM131.429 15.3689V24.8008H129.486L125.696 18.4783V24.8008H123.753V15.3689H125.696L129.492 21.6979V15.3689H131.429ZM137.142 15.3689V24.8008H135.206V15.3689H137.142ZM140.045 15.3689V16.8912H132.349V15.3689H140.045ZM141.243 24.1659C141.243 23.963 141.306 23.7924 141.431 23.6542C141.56 23.5117 141.746 23.4404 141.988 23.4404C142.23 23.4404 142.413 23.5117 142.539 23.6542C142.668 23.7924 142.733 23.963 142.733 24.1659C142.733 24.3646 142.668 24.533 142.539 24.6712C142.413 24.8094 142.23 24.8785 141.988 24.8785C141.746 24.8785 141.56 24.8094 141.431 24.6712C141.306 24.533 141.243 24.3646 141.243 24.1659ZM150.597 21.8015H151.841C151.776 22.3975 151.605 22.9308 151.329 23.4016C151.053 23.8723 150.662 24.2458 150.157 24.5222C149.651 24.7943 149.021 24.9303 148.265 24.9303C147.712 24.9303 147.209 24.8267 146.756 24.6194C146.307 24.4121 145.92 24.1184 145.596 23.7384C145.272 23.354 145.022 22.8941 144.845 22.3586C144.672 21.8188 144.586 21.2185 144.586 20.5577V19.6184C144.586 18.9577 144.672 18.3596 144.845 17.8241C145.022 17.2842 145.274 16.8221 145.603 16.4378C145.935 16.0534 146.335 15.7576 146.801 15.5503C147.267 15.343 147.792 15.2394 148.375 15.2394C149.088 15.2394 149.69 15.3733 150.182 15.641C150.675 15.9088 151.057 16.2802 151.329 16.7552C151.605 17.2259 151.776 17.7722 151.841 18.3941H150.597C150.537 17.9536 150.424 17.5757 150.26 17.2605C150.096 16.9409 149.863 16.6947 149.561 16.522C149.258 16.3493 148.863 16.2629 148.375 16.2629C147.956 16.2629 147.587 16.3428 147.267 16.5026C146.952 16.6624 146.687 16.8891 146.471 17.1828C146.259 17.4764 146.099 17.8284 145.991 18.2387C145.883 18.6489 145.829 19.1045 145.829 19.6055V20.5577C145.829 21.0198 145.877 21.4539 145.972 21.8598C146.071 22.2658 146.22 22.622 146.419 22.9287C146.617 23.2353 146.87 23.4771 147.177 23.6542C147.483 23.8269 147.846 23.9133 148.265 23.9133C148.796 23.9133 149.219 23.8291 149.535 23.6607C149.85 23.4922 150.087 23.2504 150.247 22.9351C150.411 22.6199 150.528 22.242 150.597 21.8015ZM160.806 19.7869V20.3828C160.806 21.0911 160.718 21.7259 160.541 22.2873C160.364 22.8488 160.109 23.326 159.776 23.719C159.444 24.112 159.044 24.4121 158.578 24.6194C158.116 24.8267 157.598 24.9303 157.023 24.9303C156.466 24.9303 155.954 24.8267 155.488 24.6194C155.026 24.4121 154.624 24.112 154.283 23.719C153.946 23.326 153.685 22.8488 153.499 22.2873C153.313 21.7259 153.221 21.0911 153.221 20.3828V19.7869C153.221 19.0786 153.311 18.4459 153.493 17.8888C153.678 17.3274 153.94 16.8502 154.277 16.4572C154.613 16.0599 155.013 15.7576 155.475 15.5503C155.941 15.343 156.453 15.2394 157.01 15.2394C157.585 15.2394 158.103 15.343 158.565 15.5503C159.031 15.7576 159.431 16.0599 159.763 16.4572C160.1 16.8502 160.357 17.3274 160.534 17.8888C160.716 18.4459 160.806 19.0786 160.806 19.7869ZM159.569 20.3828V19.7739C159.569 19.2125 159.511 18.7159 159.394 18.284C159.282 17.8521 159.116 17.4894 158.895 17.1957C158.675 16.902 158.405 16.6796 158.086 16.5285C157.77 16.3773 157.412 16.3018 157.01 16.3018C156.622 16.3018 156.27 16.3773 155.954 16.5285C155.643 16.6796 155.376 16.902 155.151 17.1957C154.931 17.4894 154.76 17.8521 154.639 18.284C154.518 18.7159 154.458 19.2125 154.458 19.7739V20.3828C154.458 20.9486 154.518 21.4495 154.639 21.8857C154.76 22.3176 154.933 22.6825 155.158 22.9805C155.386 23.2742 155.656 23.4966 155.967 23.6477C156.283 23.7989 156.634 23.8744 157.023 23.8744C157.429 23.8744 157.79 23.7989 158.105 23.6477C158.42 23.4966 158.686 23.2742 158.902 22.9805C159.122 22.6825 159.288 22.3176 159.401 21.8857C159.513 21.4495 159.569 20.9486 159.569 20.3828ZM163.074 15.3689H164.285L167.375 23.0582L170.458 15.3689H171.676L167.841 24.8008H166.896L163.074 15.3689ZM162.678 15.3689H163.747L163.922 21.1213V24.8008H162.678V15.3689ZM170.996 15.3689H172.065V24.8008H170.821V21.1213L170.996 15.3689Z" fill="#0D0D0D"/>
</svg>
